<svg width="299" height="48" viewBox="0 0 299 48" fill="none" xmlns="http://www.w3.org/2000/svg">
<path d="M9.62891 10.4023L13.2227 10.3242C13.6654 10.3047 14.0007 10.2233 14.2285 10.0801C14.2936 10.028 14.375 10.002 14.4727 10.002C14.5768 10.002 14.6875 10.041 14.8047 10.1191C15.2604 10.4121 15.7129 10.7734 16.1621 11.2031C16.3379 11.3529 16.4258 11.5059 16.4258 11.6621C16.4258 11.8053 16.3444 11.9453 16.1816 12.082C15.9342 12.2773 15.7161 12.5638 15.5273 12.9414C14.2708 15.4935 12.9492 17.554 11.5625 19.123C10.651 20.1517 9.59961 21.1445 8.4082 22.1016C7.38607 22.9219 6.41276 23.5892 5.48828 24.1035C5.38411 24.1686 5.27669 24.2012 5.16602 24.2012C5.02279 24.2012 4.86979 24.1263 4.70703 23.9766C4.21224 23.5859 3.57747 23.2799 2.80273 23.0586C4.42383 22.1667 5.7487 21.3138 6.77734 20.5C7.63021 19.8229 8.52539 18.9766 9.46289 17.9609C10.3223 17.0039 11.0254 16.099 11.5723 15.2461C12.0801 14.4453 12.6107 13.4557 13.1641 12.2773L8.32031 12.4238C6.71224 14.403 5.45247 15.7669 4.54102 16.5156C4.39779 16.6654 4.25781 16.7402 4.12109 16.7402C4.02344 16.7402 3.92578 16.7012 3.82812 16.623C3.22266 16.1868 2.58138 15.9004 1.9043 15.7637C4.13737 13.9408 5.93099 11.9616 7.28516 9.82617C7.89714 8.78451 8.29102 7.88281 8.4668 7.12109C9.59961 7.51823 10.3776 7.87305 10.8008 8.18555C10.9375 8.27669 11.0059 8.39062 11.0059 8.52734C11.0059 8.65755 10.931 8.76823 10.7812 8.85938C10.6966 8.91146 10.5306 9.09049 10.2832 9.39648C10.14 9.62435 9.92188 9.95964 9.62891 10.4023ZM14.6484 8.36133L15.7031 7.61914C15.7422 7.58659 15.7812 7.57031 15.8203 7.57031C15.8724 7.57031 15.9342 7.59961 16.0059 7.6582C16.6895 8.18555 17.321 8.89844 17.9004 9.79688C17.9395 9.85547 17.959 9.9043 17.959 9.94336C17.959 10.0085 17.9199 10.0671 17.8418 10.1191L17.002 10.7441C16.9434 10.7832 16.8913 10.8027 16.8457 10.8027C16.7806 10.8027 16.7188 10.7604 16.6602 10.6758C16.0417 9.73177 15.3711 8.96029 14.6484 8.36133ZM16.4844 7.04297L17.4805 6.32031C17.5326 6.28776 17.5749 6.27148 17.6074 6.27148C17.653 6.27148 17.7116 6.30078 17.7832 6.35938C18.5514 6.9388 19.1862 7.62565 19.6875 8.41992C19.7266 8.47852 19.7461 8.53385 19.7461 8.58594C19.7461 8.65755 19.707 8.72266 19.6289 8.78125L18.8281 9.39648C18.7695 9.44206 18.7142 9.46484 18.6621 9.46484C18.597 9.46484 18.5384 9.42253 18.4863 9.33789C17.9264 8.44596 17.2591 7.68099 16.4844 7.04297ZM24.3359 7.63867C25.2865 7.72982 26.3802 7.77539 27.6172 7.77539H31.2207C32.028 7.77539 33.0729 7.74284 34.3555 7.67773C34.5182 7.67773 34.5996 7.7819 34.5996 7.99023C34.6191 8.25065 34.6289 8.51107 34.6289 8.77148C34.6289 9.03841 34.6191 9.29883 34.5996 9.55273C34.5996 9.81966 34.5052 9.95312 34.3164 9.95312C34.3034 9.95312 34.2773 9.95312 34.2383 9.95312L31.416 9.91406H27.4609C26.3672 9.91406 25.4525 9.9401 24.7168 9.99219C24.5475 9.99219 24.4531 9.8457 24.4336 9.55273C24.3685 9.09049 24.3359 8.45247 24.3359 7.63867ZM22.5977 11.9062C23.6133 12.0104 24.8405 12.0625 26.2793 12.0625H33.1348C33.584 12.0625 33.9388 11.9876 34.1992 11.8379C34.2969 11.7598 34.3815 11.7207 34.4531 11.7207C34.5378 11.7207 34.6387 11.7663 34.7559 11.8574C35.2897 12.2806 35.7389 12.694 36.1035 13.0977C36.2337 13.2344 36.2988 13.3743 36.2988 13.5176C36.2988 13.6608 36.224 13.7878 36.0742 13.8984C35.8268 14.1068 35.6022 14.4193 35.4004 14.8359C34.3327 17.1081 33.1152 18.9473 31.748 20.3535C30.5436 21.597 29.0397 22.707 27.2363 23.6836C27.0475 23.7747 26.9141 23.8203 26.8359 23.8203C26.7057 23.8203 26.5592 23.7422 26.3965 23.5859C25.9668 23.2018 25.3483 22.8535 24.541 22.541C26.6504 21.5645 28.4277 20.3503 29.873 18.8984C31.2728 17.4922 32.2949 15.9264 32.9395 14.2012L26.1133 14.2207C25 14.2207 24.0007 14.2467 23.1152 14.2988C22.959 14.2988 22.8613 14.1719 22.8223 13.918C22.7572 13.6576 22.6823 12.987 22.5977 11.9062ZM42.0703 10.5391C42.4023 10.1354 42.8678 9.61458 43.4668 8.97656C43.5514 8.8724 43.6458 8.82031 43.75 8.82031C43.8086 8.82031 43.8965 8.85286 44.0137 8.91797C45.2572 9.58203 46.5299 10.5293 47.832 11.7598C47.9492 11.877 48.0078 11.9714 48.0078 12.043C48.0078 12.1146 47.9688 12.1992 47.8906 12.2969C47.4544 12.8763 47.041 13.3776 46.6504 13.8008C46.5397 13.9049 46.4583 13.957 46.4062 13.957C46.3411 13.957 46.2565 13.9049 46.1523 13.8008C44.9349 12.5443 43.5742 11.457 42.0703 10.5391ZM42.5098 20.5195C43.5775 20.2266 44.4792 19.8945 45.2148 19.5234C46.5039 18.8529 47.5749 18.2376 48.4277 17.6777C49.1764 17.1895 50.0228 16.5645 50.9668 15.8027C52.3079 14.7155 53.3724 13.778 54.1602 12.9902C54.9089 12.235 55.6738 11.3594 56.4551 10.3633C56.5592 11.2422 56.7448 12.0202 57.0117 12.6973C57.0768 12.8535 57.1094 12.9805 57.1094 13.0781C57.1094 13.2279 57.002 13.4297 56.7871 13.6836C55.6217 15.0443 54.0885 16.457 52.1875 17.9219C50.5339 19.2174 48.5221 20.5228 46.1523 21.8379C45.4492 22.2611 45.0033 22.5703 44.8145 22.7656C44.6777 22.8958 44.5573 22.9609 44.4531 22.9609C44.349 22.9609 44.235 22.8893 44.1113 22.7461C43.4928 22.0495 42.959 21.3073 42.5098 20.5195ZM68.291 12.7168C70.804 13.5046 72.9232 14.4128 74.6484 15.4414C74.8242 15.5326 74.9121 15.6465 74.9121 15.7832C74.9121 15.8353 74.8991 15.8939 74.873 15.959C74.6257 16.584 74.3392 17.1634 74.0137 17.6973C73.929 17.847 73.8411 17.9219 73.75 17.9219C73.6719 17.9219 73.597 17.8893 73.5254 17.8242C71.6504 16.6198 69.8991 15.7637 68.2715 15.2559V19.6797C68.2715 20.4089 68.2975 21.7142 68.3496 23.5957C68.3496 23.6217 68.3496 23.6413 68.3496 23.6543C68.3496 23.8171 68.2292 23.8984 67.9883 23.8984C67.6888 23.918 67.3926 23.9277 67.0996 23.9277C66.8001 23.9277 66.5039 23.918 66.2109 23.8984C65.957 23.8984 65.8301 23.7975 65.8301 23.5957C65.8822 22.3066 65.9082 20.9948 65.9082 19.6602V9.81641C65.9082 8.59896 65.8431 7.61263 65.7129 6.85742C66.8848 6.93555 67.7181 7.04297 68.2129 7.17969C68.4668 7.23177 68.5938 7.3457 68.5938 7.52148C68.5938 7.63216 68.5384 7.78516 68.4277 7.98047C68.3366 8.15625 68.291 8.78125 68.291 9.85547V12.7168ZM71.8945 8.53711L72.9492 7.80469C72.9948 7.77214 73.0371 7.75586 73.0762 7.75586C73.1217 7.75586 73.1803 7.78516 73.252 7.84375C73.9355 8.37109 74.5671 9.08398 75.1465 9.98242C75.1855 10.0345 75.2051 10.0833 75.2051 10.1289C75.2051 10.1875 75.1693 10.2461 75.0977 10.3047L74.248 10.9199C74.1895 10.9655 74.1374 10.9883 74.0918 10.9883C74.0332 10.9883 73.9746 10.946 73.916 10.8613C73.291 9.91081 72.6172 9.13607 71.8945 8.53711ZM73.7305 7.21875L74.7363 6.49609C74.7819 6.46354 74.8242 6.44727 74.8633 6.44727C74.9089 6.44727 74.9642 6.47656 75.0293 6.53516C75.804 7.12109 76.4388 7.80794 76.9336 8.5957C76.9727 8.66081 76.9922 8.71615 76.9922 8.76172C76.9922 8.83333 76.9531 8.89844 76.875 8.95703L76.0742 9.58203C76.0156 9.62109 75.9635 9.64062 75.918 9.64062C75.8464 9.64062 75.7845 9.59831 75.7324 9.51367C75.1725 8.62174 74.5052 7.85677 73.7305 7.21875ZM81.4941 14.2207C82.5358 14.3835 83.9746 14.4648 85.8105 14.4648H92.2559C92.8874 14.4648 93.7012 14.4551 94.6973 14.4355C95.9668 14.416 96.6862 14.403 96.8555 14.3965C96.888 14.3965 96.9206 14.3965 96.9531 14.3965C97.1289 14.3965 97.2168 14.4909 97.2168 14.6797C97.2363 14.9857 97.2461 15.3014 97.2461 15.627C97.2461 15.946 97.2363 16.2585 97.2168 16.5645C97.2168 16.7663 97.1224 16.8672 96.9336 16.8672H96.8555C94.8568 16.8411 93.3691 16.8281 92.3926 16.8281H85.1953L82.2559 17.0723C82.002 17.0723 81.849 16.9323 81.7969 16.6523C81.6797 16.125 81.5788 15.3145 81.4941 14.2207ZM111.445 18.7812C112.337 18.306 113.285 17.6842 114.287 16.916C115.667 15.8613 116.833 14.7285 117.783 13.5176C117.861 14.2207 118.07 14.8945 118.408 15.5391C118.486 15.7279 118.525 15.8418 118.525 15.8809C118.525 16.0176 118.424 16.1836 118.223 16.3789C117.24 17.388 116.253 18.2637 115.264 19.0059C114.118 19.8848 112.933 20.6855 111.709 21.4082C111.52 21.5319 111.328 21.6719 111.133 21.8281C111.003 21.9323 110.866 21.9844 110.723 21.9844C110.618 21.9844 110.479 21.9323 110.303 21.8281C109.919 21.5612 109.518 21.1543 109.102 20.6074C108.984 20.4251 108.926 20.2852 108.926 20.1875C108.926 20.0898 108.952 19.9889 109.004 19.8848C109.082 19.735 109.121 19.2272 109.121 18.3613V12.1016C109.121 10.3958 109.053 9.23372 108.916 8.61523C110.179 8.77799 111.016 8.91797 111.426 9.03516C111.667 9.09375 111.787 9.20768 111.787 9.37695C111.787 9.50065 111.735 9.66992 111.631 9.88477C111.507 10.1322 111.445 10.8711 111.445 12.1016V18.7812ZM104.463 9.88477C105.752 10.041 106.598 10.1875 107.002 10.3242C107.217 10.3828 107.324 10.5033 107.324 10.6855C107.324 10.7572 107.305 10.8418 107.266 10.9395C107.103 11.2585 107.021 11.7109 107.021 12.2969C106.982 14.6927 106.621 16.6523 105.938 18.1758C105.352 19.5625 104.404 20.8158 103.096 21.9355C102.881 22.1113 102.708 22.1992 102.578 22.1992C102.474 22.1992 102.347 22.1471 102.197 22.043C101.729 21.7174 101.162 21.4375 100.498 21.2031C102.061 20.0182 103.167 18.6901 103.818 17.2188C104.137 16.4375 104.352 15.666 104.463 14.9043C104.587 14.097 104.652 12.9837 104.658 11.5645C104.658 10.9395 104.593 10.3796 104.463 9.88477ZM121.377 14.2988C121.416 14.2402 121.637 13.8789 122.041 13.2148C122.217 12.9284 122.35 12.7233 122.441 12.5996C122.539 12.4629 122.64 12.3945 122.744 12.3945C122.77 12.3945 122.793 12.3978 122.812 12.4043C124.199 12.8665 125.482 13.5208 126.66 14.3672C126.803 14.4714 126.875 14.569 126.875 14.6602C126.875 14.7057 126.849 14.7806 126.797 14.8848C126.628 15.2949 126.335 15.8027 125.918 16.4082C125.807 16.5384 125.719 16.6035 125.654 16.6035C125.596 16.6035 125.518 16.5645 125.42 16.4863C124.281 15.6465 122.933 14.9173 121.377 14.2988ZM123.799 9.60156L124.854 8C124.945 7.85026 125.039 7.77539 125.137 7.77539C125.195 7.77539 125.27 7.79818 125.361 7.84375C126.878 8.45573 128.132 9.19466 129.121 10.0605C129.225 10.1322 129.277 10.2201 129.277 10.3242C129.277 10.4089 129.251 10.4935 129.199 10.5781C128.815 11.2682 128.473 11.7695 128.174 12.082C128.128 12.1602 128.063 12.1992 127.979 12.1992C127.894 12.1992 127.793 12.1536 127.676 12.0625C126.426 11.0273 125.133 10.207 123.799 9.60156ZM122.959 20.998C123.805 20.8353 124.71 20.5098 125.674 20.0215C127.835 18.8822 129.661 17.7298 131.152 16.5645C133.216 14.9889 135.137 13.127 136.914 10.9785C137.005 11.61 137.201 12.3587 137.5 13.2246C137.565 13.3809 137.598 13.5078 137.598 13.6055C137.598 13.7617 137.526 13.9147 137.383 14.0645C135.859 15.6921 134.163 17.2318 132.295 18.6836C130.745 19.862 128.753 21.1152 126.318 22.4434C125.615 22.821 125.228 23.0488 125.156 23.127C125.052 23.2311 124.945 23.2832 124.834 23.2832C124.691 23.2832 124.557 23.2018 124.434 23.0391C124.056 22.6615 123.564 21.9811 122.959 20.998ZM151.045 7.74609C152.152 8.16927 153.018 8.57292 153.643 8.95703C153.805 9.0612 153.887 9.17513 153.887 9.29883C153.887 9.38997 153.841 9.50391 153.75 9.64062C153.47 9.92057 153.184 10.373 152.891 10.998C151.823 13.4395 150.589 15.5521 149.189 17.3359C147.34 19.7448 145.381 21.6198 143.311 22.9609C143.161 23.0651 143.021 23.1172 142.891 23.1172C142.747 23.1172 142.607 23.0586 142.471 22.9414C141.878 22.4987 141.243 22.1569 140.566 21.916C143.151 20.3079 145.306 18.3743 147.031 16.1152C148.333 14.429 149.43 12.5117 150.322 10.3633C150.713 9.35417 150.954 8.48177 151.045 7.74609ZM157.715 19.582C159.59 17.9154 161.035 15.9264 162.051 13.6152C162.591 12.4043 162.894 11.418 162.959 10.6562C164.079 11.0534 164.902 11.3952 165.43 11.6816C165.592 11.7533 165.674 11.8607 165.674 12.0039C165.674 12.1341 165.605 12.2676 165.469 12.4043C165.28 12.5931 165.049 12.9967 164.775 13.6152C163.545 16.3887 162.119 18.6283 160.498 20.334C160.316 20.5358 160.127 20.6367 159.932 20.6367C159.782 20.6367 159.629 20.5716 159.473 20.4414C159.036 20.0898 158.451 19.8034 157.715 19.582ZM167.939 11.9844C168.174 11.8216 168.503 11.597 168.926 11.3105C169.219 11.1087 169.417 10.972 169.521 10.9004C169.632 10.8223 169.714 10.7865 169.766 10.793C169.889 10.7865 170.007 10.8353 170.117 10.9395C172.181 13.0033 173.854 15.4512 175.137 18.2832C175.189 18.3678 175.215 18.459 175.215 18.5566C175.215 18.6738 175.15 18.7812 175.02 18.8789C174.557 19.2435 174.004 19.5951 173.359 19.9336C173.262 19.9792 173.184 20.002 173.125 20.002C173.008 20.002 172.923 19.9206 172.871 19.7578C171.458 16.5677 169.814 13.9766 167.939 11.9844ZM181.719 7.63867C182.669 7.72982 183.763 7.77539 185 7.77539H188.604C189.411 7.77539 190.456 7.74284 191.738 7.67773C191.901 7.67773 191.982 7.7819 191.982 7.99023C192.002 8.25065 192.012 8.51107 192.012 8.77148C192.012 9.03841 192.002 9.29883 191.982 9.55273C191.982 9.81966 191.888 9.95312 191.699 9.95312C191.686 9.95312 191.66 9.95312 191.621 9.95312L188.799 9.91406H184.844C183.75 9.91406 182.835 9.9401 182.1 9.99219C181.93 9.99219 181.836 9.8457 181.816 9.55273C181.751 9.09049 181.719 8.45247 181.719 7.63867ZM179.98 11.9062C180.996 12.0104 182.223 12.0625 183.662 12.0625H190.518C190.967 12.0625 191.322 11.9876 191.582 11.8379C191.68 11.7598 191.764 11.7207 191.836 11.7207C191.921 11.7207 192.021 11.7663 192.139 11.8574C192.673 12.2806 193.122 12.694 193.486 13.0977C193.617 13.2344 193.682 13.3743 193.682 13.5176C193.682 13.6608 193.607 13.7878 193.457 13.8984C193.21 14.1068 192.985 14.4193 192.783 14.8359C191.715 17.1081 190.498 18.9473 189.131 20.3535C187.926 21.597 186.423 22.707 184.619 23.6836C184.43 23.7747 184.297 23.8203 184.219 23.8203C184.089 23.8203 183.942 23.7422 183.779 23.5859C183.35 23.2018 182.731 22.8535 181.924 22.541C184.033 21.5645 185.811 20.3503 187.256 18.8984C188.656 17.4922 189.678 15.9264 190.322 14.2012L183.496 14.2207C182.383 14.2207 181.383 14.2467 180.498 14.2988C180.342 14.2988 180.244 14.1719 180.205 13.918C180.14 13.6576 180.065 12.987 179.98 11.9062Z" fill="black"/>
<path d="M23.1855 31.2793L21.6094 31.6543C21.3711 30.4199 20.7266 29.8027 19.6758 29.8027C18.8984 29.8027 18.3008 30.1426 17.8828 30.8223C17.5039 31.4434 17.3145 32.2969 17.3145 33.3828C17.3145 34.6172 17.5547 35.5469 18.0352 36.1719C18.4414 36.6953 18.9805 36.957 19.6523 36.957C20.875 36.957 21.5684 36.1133 21.7324 34.4258H19.5586V33.1777H23.2441V38.082H22.166L21.9844 36.7285C21.7305 37.2363 21.3652 37.6191 20.8887 37.877C20.4785 38.0957 20.0117 38.2051 19.4883 38.2051C18.2227 38.2051 17.2402 37.7324 16.541 36.7871C15.9121 35.9395 15.5977 34.8086 15.5977 33.3945C15.5977 31.7812 16.0234 30.5371 16.875 29.6621C17.5977 28.9238 18.5234 28.5547 19.6523 28.5547C20.6602 28.5547 21.4805 28.8359 22.1133 29.3984C22.6367 29.8672 22.9941 30.4941 23.1855 31.2793ZM29.8055 31.291L29.7059 32.709C28.866 32.709 28.243 33.2656 27.8367 34.3789V38.0234H26.3484V31.4375H27.7664V33.0547C28.1922 31.8789 28.8719 31.291 29.8055 31.291ZM32.066 33.0957C32.4059 31.8848 33.3141 31.2793 34.7906 31.2793C36.4937 31.2793 37.3453 32.0078 37.3453 33.4648V36.0781C37.3453 36.7148 37.3805 37.3633 37.4508 38.0234H36.0621C36.0191 37.7773 35.982 37.4902 35.9508 37.1621C35.4781 37.8418 34.7867 38.1816 33.8766 38.1816C33.2242 38.1816 32.7125 37.9824 32.3414 37.584C32.0133 37.2324 31.8492 36.7793 31.8492 36.2246C31.8492 35.0527 32.566 34.3281 33.9996 34.0508C34.5309 33.9492 35.1578 33.8867 35.8805 33.8633V33.4883C35.8805 33.0508 35.777 32.7402 35.5699 32.5566C35.3902 32.4004 35.1129 32.3223 34.7379 32.3223C34.3941 32.3223 34.109 32.4336 33.8824 32.6562C33.6754 32.8594 33.5406 33.1328 33.4781 33.4766L32.066 33.0957ZM35.8805 34.7949C35.3766 34.8066 34.8727 34.8711 34.3687 34.9883C33.65 35.1602 33.2906 35.5332 33.2906 36.1074C33.2906 36.7715 33.6422 37.1035 34.3453 37.1035C34.9859 37.1035 35.4977 36.7422 35.8805 36.0195V34.7949ZM41.9086 31.4375V32.5918C42.1977 32.1621 42.5414 31.832 42.9398 31.6016C43.3031 31.3945 43.6801 31.291 44.0707 31.291C44.6684 31.291 45.1391 31.4863 45.4828 31.877C45.7953 32.2285 45.9516 32.6934 45.9516 33.2715V38.0234H44.4047V33.6934C44.4047 32.9551 44.1 32.5859 43.4906 32.5859C43.2094 32.5859 42.9203 32.6992 42.6234 32.9258C42.3695 33.125 42.1469 33.3848 41.9555 33.7051V38.0234H40.4438V31.4375H41.9086ZM54.4816 28.543V38.0234H53.0285V37.1094C52.6027 37.832 51.9875 38.1934 51.1828 38.1934C50.3937 38.1934 49.7668 37.8535 49.302 37.1738C48.8762 36.5449 48.6633 35.7207 48.6633 34.7012C48.6633 33.5449 48.9406 32.6602 49.4953 32.0469C49.9406 31.5508 50.5031 31.3027 51.1828 31.3027C51.9719 31.3027 52.5715 31.6523 52.9816 32.3516V28.543H54.4816ZM52.9816 33.6113C52.677 32.8574 52.2219 32.4805 51.6164 32.4805C51.1789 32.4805 50.8332 32.6855 50.5793 33.0957C50.3332 33.4902 50.2102 34.0332 50.2102 34.7246C50.2102 35.5332 50.3684 36.1387 50.6848 36.541C50.9348 36.8574 51.257 37.0156 51.6516 37.0156C52.2219 37.0156 52.6652 36.6484 52.9816 35.9141V33.6113ZM63.1641 35.0586H58.7109C58.7188 35.7461 58.8789 36.2734 59.1914 36.6406C59.4766 36.9727 59.8691 37.1387 60.3691 37.1387C61.0762 37.1387 61.5391 36.7207 61.7578 35.8848L63.1289 36.2832C62.7148 37.5566 61.7891 38.1934 60.3516 38.1934C59.3008 38.1934 58.502 37.8535 57.9551 37.1738C57.4746 36.5801 57.2344 35.7793 57.2344 34.7715C57.2344 33.6309 57.5469 32.7441 58.1719 32.1113C58.707 31.5645 59.3906 31.291 60.2227 31.291C61.1523 31.291 61.8867 31.6289 62.4258 32.3047C62.918 32.918 63.1641 33.7324 63.1641 34.748V35.0586ZM61.6875 34.0625C61.6133 32.9102 61.1328 32.334 60.2461 32.334C59.7656 32.334 59.3926 32.5098 59.127 32.8613C58.9004 33.1621 58.7695 33.5625 58.7344 34.0625H61.6875ZM71.3602 31.4375V38.0234H69.8953V36.8867C69.6414 37.3164 69.3113 37.6484 68.9051 37.8828C68.5457 38.0898 68.1629 38.1934 67.7566 38.1934C67.159 38.1934 66.6863 38.0098 66.3387 37.6426C66.0145 37.2949 65.8523 36.8301 65.8523 36.248V31.4375H67.3992V35.8145C67.3992 36.5371 67.7078 36.8984 68.325 36.8984C68.6219 36.8984 68.9227 36.7773 69.2273 36.5352C69.4852 36.3281 69.6922 36.0723 69.8484 35.7676V31.4375H71.3602ZM77.9625 31.291L77.8629 32.709C77.023 32.709 76.4 33.2656 75.9938 34.3789V38.0234H74.5055V31.4375H75.9234V33.0547C76.3492 31.8789 77.0289 31.291 77.9625 31.291ZM85.912 32.2402C86.2675 32.2402 86.5644 32.373 86.8027 32.6387C87.0097 32.8652 87.1132 33.1328 87.1132 33.4414C87.1132 33.7969 86.9804 34.0938 86.7148 34.332C86.4882 34.5391 86.2206 34.6426 85.912 34.6426C85.5566 34.6426 85.2597 34.5098 85.0214 34.2441C84.8144 34.0176 84.7109 33.75 84.7109 33.4414C84.7109 33.0859 84.8437 32.7891 85.1093 32.5508C85.3359 32.3438 85.6034 32.2402 85.912 32.2402ZM100.781 30.875L99.2112 31.3027C98.969 30.2871 98.4163 29.7793 97.553 29.7793C97.0295 29.7793 96.6291 29.9023 96.3518 30.1484C96.1174 30.3594 96.0002 30.6406 96.0002 30.9922C96.0002 31.4297 96.135 31.7617 96.4045 31.9883C96.6506 32.1914 97.0862 32.3789 97.7112 32.5508L98.2034 32.6973C99.2932 32.9941 100.039 33.3828 100.442 33.8633C100.766 34.2539 100.928 34.7812 100.928 35.4453C100.928 36.3477 100.608 37.043 99.967 37.5312C99.3811 37.9805 98.5803 38.2051 97.5647 38.2051C96.5842 38.2051 95.7893 37.9785 95.1799 37.5254C94.6291 37.1152 94.2522 36.5371 94.0491 35.791L95.5959 35.2988C95.7248 35.873 95.9768 36.3066 96.3518 36.5996C96.676 36.8535 97.0686 36.9805 97.5295 36.9805C98.717 36.9805 99.3108 36.5371 99.3108 35.6504C99.3108 35.2051 99.1799 34.873 98.9182 34.6543C98.6643 34.4395 98.1897 34.2344 97.4944 34.0391L97.0139 33.8984C95.9788 33.5898 95.2678 33.1973 94.8811 32.7207C94.5569 32.3223 94.3948 31.7812 94.3948 31.0977C94.3948 30.3125 94.6995 29.6836 95.3088 29.2109C95.8674 28.7734 96.5998 28.5547 97.5061 28.5547C99.1975 28.5547 100.289 29.3281 100.781 30.875ZM105.438 28.543V32.5508C106.028 31.7188 106.733 31.3027 107.554 31.3027C108.151 31.3027 108.622 31.4961 108.966 31.8828C109.278 32.2344 109.434 32.6973 109.434 33.2715V38.0234H107.887V33.7051C107.887 32.9668 107.583 32.5977 106.973 32.5977C106.692 32.5977 106.403 32.7148 106.106 32.9492C105.852 33.1484 105.63 33.4082 105.438 33.7285V38.0234H103.927V28.543H105.438ZM114.285 31.4375V38.0234H112.773V31.4375H114.285ZM114.349 28.7129V30.2598H112.714V28.7129H114.349ZM119.123 31.4375V32.5918C119.412 32.1621 119.756 31.832 120.154 31.6016C120.518 31.3945 120.894 31.291 121.285 31.291C121.883 31.291 122.353 31.4863 122.697 31.877C123.01 32.2285 123.166 32.6934 123.166 33.2715V38.0234H121.619V33.6934C121.619 32.9551 121.314 32.5859 120.705 32.5859C120.424 32.5859 120.135 32.6992 119.838 32.9258C119.584 33.125 119.361 33.3848 119.17 33.7051V38.0234H117.658V31.4375H119.123ZM129.106 31.291C130.067 31.291 130.819 31.6367 131.362 32.3281C131.842 32.9414 132.083 33.7402 132.083 34.7246C132.083 35.8613 131.774 36.7461 131.157 37.3789C130.625 37.9219 129.938 38.1934 129.094 38.1934C128.125 38.1934 127.372 37.8477 126.833 37.1562C126.356 36.5469 126.118 35.748 126.118 34.7598C126.118 33.627 126.428 32.7422 127.049 32.1055C127.584 31.5625 128.27 31.291 129.106 31.291ZM129.106 32.3809C128.145 32.3809 127.665 33.166 127.665 34.7363C127.665 36.3145 128.141 37.1035 129.094 37.1035C130.055 37.1035 130.536 36.3145 130.536 34.7363C130.536 33.166 130.059 32.3809 129.106 32.3809ZM136.581 28.543V32.5508C137.171 31.7188 137.876 31.3027 138.696 31.3027C139.294 31.3027 139.765 31.4961 140.108 31.8828C140.421 32.2344 140.577 32.6973 140.577 33.2715V38.0234H139.03V33.7051C139.03 32.9668 138.726 32.5977 138.116 32.5977C137.835 32.5977 137.546 32.7148 137.249 32.9492C136.995 33.1484 136.772 33.4082 136.581 33.7285V38.0234H135.069V28.543H136.581ZM143.734 33.0957C144.074 31.8848 144.982 31.2793 146.459 31.2793C148.162 31.2793 149.013 32.0078 149.013 33.4648V36.0781C149.013 36.7148 149.048 37.3633 149.119 38.0234H147.73C147.687 37.7773 147.65 37.4902 147.619 37.1621C147.146 37.8418 146.455 38.1816 145.545 38.1816C144.892 38.1816 144.38 37.9824 144.009 37.584C143.681 37.2324 143.517 36.7793 143.517 36.2246C143.517 35.0527 144.234 34.3281 145.668 34.0508C146.199 33.9492 146.826 33.8867 147.548 33.8633V33.4883C147.548 33.0508 147.445 32.7402 147.238 32.5566C147.058 32.4004 146.781 32.3223 146.406 32.3223C146.062 32.3223 145.777 32.4336 145.55 32.6562C145.343 32.8594 145.209 33.1328 145.146 33.4766L143.734 33.0957ZM147.548 34.7949C147.045 34.8066 146.541 34.8711 146.037 34.9883C145.318 35.1602 144.959 35.5332 144.959 36.1074C144.959 36.7715 145.31 37.1035 146.013 37.1035C146.654 37.1035 147.166 36.7422 147.548 36.0195V34.7949ZM155.809 31.291L155.709 32.709C154.869 32.709 154.246 33.2656 153.84 34.3789V38.0234H152.352V31.4375H153.77V33.0547C154.195 31.8789 154.875 31.291 155.809 31.291ZM158.309 33.0957C158.649 31.8848 159.557 31.2793 161.034 31.2793C162.737 31.2793 163.589 32.0078 163.589 33.4648V36.0781C163.589 36.7148 163.624 37.3633 163.694 38.0234H162.305C162.262 37.7773 162.225 37.4902 162.194 37.1621C161.721 37.8418 161.03 38.1816 160.12 38.1816C159.467 38.1816 158.956 37.9824 158.585 37.584C158.257 37.2324 158.092 36.7793 158.092 36.2246C158.092 35.0527 158.809 34.3281 160.243 34.0508C160.774 33.9492 161.401 33.8867 162.124 33.8633V33.4883C162.124 33.0508 162.02 32.7402 161.813 32.5566C161.634 32.4004 161.356 32.3223 160.981 32.3223C160.637 32.3223 160.352 32.4336 160.126 32.6562C159.919 32.8594 159.784 33.1328 159.721 33.4766L158.309 33.0957ZM162.124 34.7949C161.62 34.8066 161.116 34.8711 160.612 34.9883C159.893 35.1602 159.534 35.5332 159.534 36.1074C159.534 36.7715 159.885 37.1035 160.589 37.1035C161.229 37.1035 161.741 36.7422 162.124 36.0195V34.7949Z" fill="black"/>
</svg>
